<svg width="1024" height="1024" viewBox="0 0 1024 1024" fill="none" xmlns="http://www.w3.org/2000/svg">
  <defs>
    <linearGradient id="bg" x1="120" y1="86" x2="904" y2="938" gradientUnits="userSpaceOnUse">
      <stop stop-color="#15191E"/>
      <stop offset="1" stop-color="#050607"/>
    </linearGradient>
    <linearGradient id="ribbon" x1="252" y1="248" x2="774" y2="818" gradientUnits="userSpaceOnUse">
      <stop offset="0" stop-color="#48F0D6"/>
      <stop offset="0.24" stop-color="#4F9CFF"/>
      <stop offset="0.52" stop-color="#8D63FF"/>
      <stop offset="0.76" stop-color="#FF5BA7"/>
      <stop offset="1" stop-color="#FFD94A"/>
    </linearGradient>
    <linearGradient id="ribbonAlt" x1="382" y1="254" x2="696" y2="780" gradientUnits="userSpaceOnUse">
      <stop offset="0" stop-color="#FFD94A"/>
      <stop offset="0.42" stop-color="#FF5BA7"/>
      <stop offset="0.72" stop-color="#8565FF"/>
      <stop offset="1" stop-color="#48F0D6"/>
    </linearGradient>
    <filter id="shadow" x="92" y="122" width="840" height="830" filterUnits="userSpaceOnUse" color-interpolation-filters="sRGB">
      <feDropShadow dx="0" dy="34" stdDeviation="38" flood-color="#000000" flood-opacity="0.48"/>
    </filter>
    <filter id="glow" x="124" y="142" width="776" height="760" filterUnits="userSpaceOnUse" color-interpolation-filters="sRGB">
      <feGaussianBlur stdDeviation="18" result="blur"/>
      <feColorMatrix in="blur" type="matrix" values="0 0 0 0 0.28 0 0 0 0 0.58 0 0 0 0 1 0 0 0 0.34 0"/>
      <feBlend in2="SourceGraphic" mode="screen"/>
    </filter>
  </defs>
  <rect width="1024" height="1024" rx="226" fill="url(#bg)"/>
  <rect x="171" y="171" width="682" height="682" rx="164" fill="#080A0D" filter="url(#shadow)"/>
  <g filter="url(#glow)">
    <path d="M238 731C323 491 396 326 483 298C552 276 600 353 644 470C679 562 714 661 786 731" stroke="url(#ribbon)" stroke-width="104" stroke-linecap="round" stroke-linejoin="round"/>
    <path d="M394 733C455 579 489 492 522 489C554 486 587 575 641 733" stroke="url(#ribbonAlt)" stroke-width="92" stroke-linecap="round" stroke-linejoin="round"/>
  </g>
</svg>
